<svg xmlns="http://www.w3.org/2000/svg" width="68.643" height="76.473" viewBox="0 0 68.643 76.473">
  <g id="approve-invoice" transform="translate(-25.17)">
    <path id="Path_32558" data-name="Path 32558" d="M89.177,0H44.5a4.642,4.642,0,0,0-4.637,4.637V15.013a20.266,20.266,0,0,0,0,38.972V71.836A4.642,4.642,0,0,0,44.5,76.473H81.01a1.633,1.633,0,0,0,1.155-.478l11.17-11.17a1.633,1.633,0,0,0,.478-1.155V4.637A4.642,4.642,0,0,0,89.177,0ZM44.5,3.266H89.177a1.372,1.372,0,0,1,1.37,1.371V9.565H43.132V4.637A1.372,1.372,0,0,1,44.5,3.266ZM28.436,34.5a17,17,0,1,1,17,17A17.017,17.017,0,0,1,28.436,34.5Zm14.7,37.338V54.63A20.232,20.232,0,0,0,60.706,47.8H70.712a1.633,1.633,0,1,0,0-3.266h-7.68a20.117,20.117,0,0,0,2.589-8.281h5.091a1.633,1.633,0,1,0,0-3.266H65.641a20.115,20.115,0,0,0-2.471-8.28h7.541a1.633,1.633,0,0,0,0-3.266H60.917a20.232,20.232,0,0,0-17.786-7.077V12.831H90.547v49.2H84.013a4.642,4.642,0,0,0-4.636,4.636v6.534H44.5A1.372,1.372,0,0,1,43.132,71.836ZM82.643,70.9V66.673a1.372,1.372,0,0,1,1.37-1.37h4.224Z" fill="#21da8f"/>
    <path id="Path_32559" data-name="Path 32559" d="M350.379,141.135H355.8a1.633,1.633,0,1,0,0-3.266h-5.423a1.633,1.633,0,1,0,0,3.266Z" transform="translate(-273.251 -116.427)" fill="#21da8f"/>
    <path id="Path_32560" data-name="Path 32560" d="M350.379,215.376H355.8a1.633,1.633,0,1,0,0-3.266h-5.423a1.633,1.633,0,1,0,0,3.266Z" transform="translate(-273.251 -179.121)" fill="#21da8f"/>
    <path id="Path_32561" data-name="Path 32561" d="M350.379,289.618H355.8a1.633,1.633,0,1,0,0-3.266h-5.423a1.633,1.633,0,1,0,0,3.266Z" transform="translate(-273.251 -241.816)" fill="#21da8f"/>
    <path id="Path_32562" data-name="Path 32562" d="M302.3,363.859a1.633,1.633,0,1,0,0-3.266H287.024a1.633,1.633,0,1,0,0,3.266Z" transform="translate(-219.749 -304.511)" fill="#21da8f"/>
    <path id="Path_32563" data-name="Path 32563" d="M94.787,153.51l-1.992-1.992a2.841,2.841,0,0,0-4.017,0l-10.45,10.45-2.889-2.889a2.841,2.841,0,0,0-4.017,0l-1.993,1.993a2.844,2.844,0,0,0,0,4.017l6.889,6.889a2.822,2.822,0,0,0,2.009.832h0a2.822,2.822,0,0,0,2.008-.832l14.451-14.451A2.844,2.844,0,0,0,94.787,153.51Zm-16.46,15.858-6.288-6.288,1.391-1.391,3.742,3.742a1.633,1.633,0,0,0,2.31,0l11.3-11.3,1.391,1.391Z" transform="translate(-36.674 -127.25)" fill="#21da8f"/>
  </g>
</svg>
