<svg xmlns="http://www.w3.org/2000/svg" width="20.199" height="20.2" viewBox="0 0 20.199 20.2">
  <g id="coin_1_" data-name="coin (1)" transform="translate(0.1 0.1)">
    <path id="Path_32525" data-name="Path 32525" d="M10,0A10,10,0,1,0,20,10,10.011,10.011,0,0,0,10,0Zm0,18.684A8.684,8.684,0,1,1,18.684,10,8.694,8.694,0,0,1,10,18.684Z" fill="#153759" stroke="#fff" stroke-width="0.2"/>
    <path id="Path_32526" data-name="Path 32526" d="M76.053,34.527V30.782a1.883,1.883,0,0,1,.917.737.65.65,0,0,0,.905.188.663.663,0,0,0,.186-.914,3.181,3.181,0,0,0-2.008-1.38V28.366a.654.654,0,1,0-1.307,0v1.046a3.224,3.224,0,0,0,0,6.3v3.745a1.883,1.883,0,0,1-.917-.737.65.65,0,0,0-.905-.188.663.663,0,0,0-.186.914,3.181,3.181,0,0,0,2.008,1.38v1.048a.654.654,0,1,0,1.307,0V40.827a3.224,3.224,0,0,0,0-6.3Zm-2.536-1.966a1.9,1.9,0,0,1,1.229-1.779V34.34A1.9,1.9,0,0,1,73.516,32.561Zm2.536,6.895V35.9a1.9,1.9,0,0,1,0,3.557Z" transform="translate(-65.399 -25.119)" fill="#153759" stroke="#fff" stroke-width="0.2"/>
  </g>
</svg>
