<svg xmlns="http://www.w3.org/2000/svg" width="20" height="20.844" viewBox="0 0 20 20.844">
  <g id="discount_3_" data-name="discount (3)" transform="translate(-10.359 0.002)">
    <g id="Group_31666" data-name="Group 31666" transform="translate(10.359 -0.002)">
      <g id="Group_31665" data-name="Group 31665" transform="translate(0 0)">
        <path id="Path_32527" data-name="Path 32527" d="M29.395,10.69a.611.611,0,0,1,0-.54l.777-1.59a1.809,1.809,0,0,0-.781-2.4l-1.564-.83a.611.611,0,0,1-.317-.437L27.2,3.147a1.81,1.81,0,0,0-2.044-1.485l-1.753.248a.611.611,0,0,1-.513-.167L21.622.512a1.809,1.809,0,0,0-2.526,0L17.824,1.743a.611.611,0,0,1-.513.167l-1.753-.248a1.809,1.809,0,0,0-2.044,1.485L13.208,4.89a.611.611,0,0,1-.317.437l-1.564.83a1.809,1.809,0,0,0-.781,2.4l.777,1.59a.611.611,0,0,1,0,.54l-.777,1.59a1.809,1.809,0,0,0,.781,2.4l1.564.83a.611.611,0,0,1,.317.437l.306,1.744A1.808,1.808,0,0,0,15.3,19.2a1.859,1.859,0,0,0,.26-.018l1.753-.248a.611.611,0,0,1,.513.167L19.1,20.328a1.809,1.809,0,0,0,2.526,0L22.894,19.1a.611.611,0,0,1,.513-.167l1.753.248A1.809,1.809,0,0,0,27.2,17.693l.306-1.743a.611.611,0,0,1,.317-.437l1.564-.83a1.809,1.809,0,0,0,.781-2.4Zm-.567,2.931-1.564.83a1.805,1.805,0,0,0-.938,1.291l-.306,1.744a.612.612,0,0,1-.692.5l-1.753-.248a1.8,1.8,0,0,0-1.518.493l-1.272,1.231a.612.612,0,0,1-.855,0l-1.272-1.231a1.8,1.8,0,0,0-1.259-.511,1.845,1.845,0,0,0-.259.018l-1.753.248a.612.612,0,0,1-.692-.5l-.306-1.744a1.805,1.805,0,0,0-.938-1.291l-1.564-.83a.612.612,0,0,1-.264-.813l.777-1.59a1.805,1.805,0,0,0,0-1.6l-.777-1.59a.612.612,0,0,1,.264-.813l1.564-.83A1.805,1.805,0,0,0,14.392,5.1L14.7,3.355a.612.612,0,0,1,.692-.5l1.753.248a1.805,1.805,0,0,0,1.518-.493l1.272-1.231a.612.612,0,0,1,.855,0l1.272,1.231a1.805,1.805,0,0,0,1.518.493l1.753-.248a.612.612,0,0,1,.692.5L26.326,5.1a1.805,1.805,0,0,0,.938,1.291l1.564.83a.612.612,0,0,1,.264.813l-.777,1.59a1.805,1.805,0,0,0,0,1.6l.777,1.59A.612.612,0,0,1,28.828,13.621Z" transform="translate(-10.359 0.002)" fill="#153759"/>
      </g>
    </g>
    <g id="Group_31668" data-name="Group 31668" transform="translate(16.195 6.256)">
      <g id="Group_31667" data-name="Group 31667">
        <path id="Path_32528" data-name="Path 32528" d="M151.959,143.952a.548.548,0,0,0-.775,0l-7.232,7.232a.548.548,0,1,0,.775.775l7.232-7.232A.548.548,0,0,0,151.959,143.952Z" transform="translate(-143.791 -143.791)" fill="#153759"/>
      </g>
    </g>
    <g id="Group_31670" data-name="Group 31670" transform="translate(15.885 5.129)">
      <g id="Group_31669" data-name="Group 31669">
        <path id="Path_32529" data-name="Path 32529" d="M144.811,123.116a2.009,2.009,0,1,0,2.009,2.009A2.011,2.011,0,0,0,144.811,123.116Zm0,2.922a.913.913,0,1,1,.913-.913A.914.914,0,0,1,144.811,126.038Z" transform="translate(-142.802 -123.116)" fill="#153759"/>
      </g>
    </g>
    <g id="Group_31672" data-name="Group 31672" transform="translate(20.814 11.693)">
      <g id="Group_31671" data-name="Group 31671" transform="translate(0)">
        <path id="Path_32530" data-name="Path 32530" d="M262.931,280.61a2.009,2.009,0,1,0,2.009,2.009A2.011,2.011,0,0,0,262.931,280.61Zm0,2.922a.913.913,0,1,1,.913-.913A.914.914,0,0,1,262.931,283.532Z" transform="translate(-260.922 -280.61)" fill="#153759"/>
      </g>
    </g>
  </g>
</svg>
