<svg xmlns="http://www.w3.org/2000/svg" width="22.939" height="18.941" viewBox="0 0 22.939 18.941">
  <g id="education" transform="translate(-9.154 -15.059)">
    <g id="Group_31613" data-name="Group 31613" transform="translate(21.625 15.509)">
      <g id="Group_31612" data-name="Group 31612">
        <path id="Path_32510" data-name="Path 32510" d="M311.808,342.812a4.007,4.007,0,1,0-5.667-.07l.07.07A5.008,5.008,0,0,0,304,346.964v6.011a1,1,0,0,0,1,1h8.015a1,1,0,0,0,1-1h0v-6.011A5.009,5.009,0,0,0,311.808,342.812Zm-2.8-4.864a2,2,0,1,1-2,2A2,2,0,0,1,309.009,337.948Zm3.005,14.026H306v-5.009a3.005,3.005,0,0,1,6.011,0Z" transform="translate(-304 -335.936)" fill="#153759" stroke="#fff" stroke-width="0.9"/>
      </g>
    </g>
    <g id="Group_31617" data-name="Group 31617" transform="translate(9.603 15.509)">
      <g id="Group_31616" data-name="Group 31616">
        <path id="Path_32512" data-name="Path 32512" d="M215.808,342.812a4.007,4.007,0,1,0-5.667-.07l.07.07A5.008,5.008,0,0,0,208,346.964v6.011a1,1,0,0,0,1,1h8.015a1,1,0,0,0,1-1h0v-6.011A5.008,5.008,0,0,0,215.808,342.812Zm-2.8-4.864a2,2,0,1,1-2,2A2,2,0,0,1,213.009,337.948Zm3.006,14.026H210v-5.009a3.006,3.006,0,0,1,6.011,0Z" transform="translate(-208 -335.936)" fill="#153759" stroke="#fff" stroke-width="0.9"/>
      </g>
    </g>
  </g>
</svg>
