<svg id="Group_31596" data-name="Group 31596" xmlns="http://www.w3.org/2000/svg" width="22.275" height="22" viewBox="0 0 22.275 22">
  <path id="Path_32501" data-name="Path 32501" d="M4.989.3H1.542A1.444,1.444,0,0,0,.1,1.742V5.189A1.444,1.444,0,0,0,1.542,6.631H4.989A1.444,1.444,0,0,0,6.431,5.189V1.742A1.444,1.444,0,0,0,4.989.3ZM5.33,5.189a.341.341,0,0,1-.342.342H1.542A.341.341,0,0,1,1.2,5.189V1.742A.341.341,0,0,1,1.542,1.4H4.989a.341.341,0,0,1,.342.342S5.33,5.189,5.33,5.189Z" transform="translate(-0.096 -0.3)" fill="#153759"/>
  <path id="Path_32502" data-name="Path 32502" d="M0,179.589a1.444,1.444,0,0,0,1.442,1.442H4.889a1.444,1.444,0,0,0,1.442-1.442v-3.446A1.444,1.444,0,0,0,4.889,174.7H1.447A1.444,1.444,0,0,0,0,176.142v3.446Zm1.1-3.451a.341.341,0,0,1,.342-.342H4.889a.341.341,0,0,1,.342.342v3.446a.341.341,0,0,1-.342.342H1.447a.341.341,0,0,1-.342-.342v-3.446Z" transform="translate(0 -166.863)" fill="#153759"/>
  <path id="Path_32503" data-name="Path 32503" d="M0,353.889a1.444,1.444,0,0,0,1.442,1.442H4.889a1.444,1.444,0,0,0,1.442-1.442v-3.446A1.444,1.444,0,0,0,4.889,349H1.447A1.444,1.444,0,0,0,0,350.442v3.446Zm1.1-3.446a.341.341,0,0,1,.342-.342H4.889a.341.341,0,0,1,.342.342v3.446a.341.341,0,0,1-.342.342H1.447a.341.341,0,0,1-.342-.342v-3.446Z" transform="translate(0 -333.331)" fill="#153759"/>
  <path id="Path_32504" data-name="Path 32504" d="M190.653,59.505h12.379a.553.553,0,1,0,0-1.105H190.653a.553.553,0,1,0,0,1.105Z" transform="translate(-181.558 -55.789)" fill="#153759" stroke="#153759" stroke-width="0.5"/>
  <path id="Path_32505" data-name="Path 32505" d="M190.653,233.905h12.379a.553.553,0,1,0,0-1.105H190.653a.553.553,0,1,0,0,1.105Z" transform="translate(-181.558 -222.353)" fill="#153759" stroke="#153759" stroke-width="0.5"/>
  <path id="Path_32506" data-name="Path 32506" d="M190.653,408.205h12.379a.553.553,0,1,0,0-1.105H190.653a.553.553,0,1,0,0,1.105Z" transform="translate(-181.558 -388.821)" fill="#153759" stroke="#153759" stroke-width="0.5"/>
</svg>
