<svg xmlns="http://www.w3.org/2000/svg" width="83.357" height="83.357" viewBox="0 0 83.357 83.357">
  <g id="Group_33030" data-name="Group 33030" transform="translate(-851.559 -190.557)">
    <path id="Path_32532" data-name="Path 32532" d="M156.021,259.778a1.729,1.729,0,0,1-1.727-1.727,1.727,1.727,0,0,0-3.454,0,5.189,5.189,0,0,0,3.473,4.89v1.512a1.727,1.727,0,1,0,3.454,0v-1.525a5.181,5.181,0,0,0-1.746-10.059,1.727,1.727,0,1,1,1.727-1.727,1.727,1.727,0,1,0,3.454,0,5.19,5.19,0,0,0-3.436-4.878v-2.536a1.727,1.727,0,1,0-3.454,0v2.524a5.181,5.181,0,0,0,1.709,10.072,1.727,1.727,0,1,1,0,3.454Zm0,0" transform="translate(726.289 -5.16)" fill="#21da8f" stroke="#fff" stroke-miterlimit="10" stroke-width="1"/>
    <path id="Path_32533" data-name="Path 32533" d="M9.834,78.417c5.021,2.688,11.914,3.94,21.693,3.94,7.956,0,13.944-.824,18.6-2.577a7.225,7.225,0,0,0,5.532,2.577H75.118a7.234,7.234,0,0,0,5.389-12.064,7.221,7.221,0,0,0,0-9.651,7.221,7.221,0,0,0,0-9.651,7.234,7.234,0,0,0-5.389-12.064H55.655c-.235,0-.467.012-.7.035a33.041,33.041,0,0,0-8.386-7.279,7.23,7.23,0,0,0-2.3-11.361L48.3,7.987A2.413,2.413,0,0,0,46,4.826H38.351a7.238,7.238,0,0,0-13.649,0H17.05a2.413,2.413,0,0,0-2.294,3.161l4.023,12.335a7.231,7.231,0,0,0-2.295,11.364A34.417,34.417,0,0,0,0,60.642c0,8.3,3.309,14.281,9.835,17.775Zm67.7-22.6a2.416,2.416,0,0,1-2.413,2.413H55.655a2.413,2.413,0,0,1,0-4.826H75.118A2.416,2.416,0,0,1,77.531,55.816Zm0,9.651a2.416,2.416,0,0,1-2.413,2.413H55.655a2.413,2.413,0,0,1,0-4.826H75.118A2.416,2.416,0,0,1,77.531,65.468ZM75.118,77.532H55.655a2.413,2.413,0,0,1,0-4.826H75.118a2.413,2.413,0,1,1,0,4.826Zm2.413-31.367a2.416,2.416,0,0,1-2.413,2.413H55.655a2.413,2.413,0,0,1,0-4.826H75.118A2.416,2.416,0,0,1,77.531,46.165ZM41.109,29.276H21.876a2.412,2.412,0,0,1-.008-4.825H41.186a2.412,2.412,0,0,1-.008,4.825h-.069ZM26.7,9.651a2.413,2.413,0,0,0,2.413-2.413,2.413,2.413,0,1,1,4.826,0v4.826a2.413,2.413,0,1,0,4.826,0V9.651h3.914l-3.252,9.973h-15.8L20.375,9.651ZM22.346,34.1H40.7a27.267,27.267,0,0,1,9.761,7.032,7.221,7.221,0,0,0-.194,9.858,7.221,7.221,0,0,0,0,9.651,7.221,7.221,0,0,0,0,9.651,7.21,7.21,0,0,0-1.849,4.826c0,.05,0,.1,0,.148-4.082,1.541-9.518,2.265-16.893,2.265-8.953,0-15.122-1.071-19.415-3.369C7.141,71.5,4.825,67.205,4.825,60.642A29.275,29.275,0,0,1,22.347,34.1Zm0,0" transform="translate(852.058 191.057)" fill="#21da8f" stroke="#fff" stroke-miterlimit="10" stroke-width="1"/>
  </g>
</svg>
