<svg xmlns="http://www.w3.org/2000/svg" width="24" height="24" viewBox="0 0 24 24">
  <g id="Group_32550" data-name="Group 32550" transform="translate(13874 -12272)">
    <g id="calendar_4_" data-name="calendar (4)" transform="translate(-13873 12273)">
      <g id="Group_32488" data-name="Group 32488">
        <g id="Group_32487" data-name="Group 32487">
          <path id="Path_32590" data-name="Path 32590" d="M20.222,1.79H19.148V0h-1.79V1.79H5.548V0H3.758V1.79H2.684A2.687,2.687,0,0,0,0,4.474V20.222a2.687,2.687,0,0,0,2.684,2.684H20.222a2.687,2.687,0,0,0,2.684-2.684V4.474A2.687,2.687,0,0,0,20.222,1.79Zm.895,18.432a.9.9,0,0,1-.895.895H2.684a.9.9,0,0,1-.895-.895V8.411H21.117Zm0-13.6H1.79V4.474a.9.9,0,0,1,.895-.895H3.758v1.79h1.79V3.579H17.359v1.79h1.79V3.579h1.074a.9.9,0,0,1,.895.895Z" fill="#8e9199"/>
        </g>
      </g>
      <g id="Group_32522" data-name="Group 32522" transform="translate(1 -1)">
        <g id="Group_32490" data-name="Group 32490" transform="translate(3.365 10.499)">
          <g id="Group_32489" data-name="Group 32489" transform="translate(0 0)">
            <rect id="Rectangle_5084" data-name="Rectangle 5084" width="2" height="2" transform="translate(-0.365 -0.046)" fill="#8e9199"/>
          </g>
        </g>
        <g id="Group_32500" data-name="Group 32500" transform="translate(3.365 14.316)">
          <g id="Group_32499" data-name="Group 32499" transform="translate(0)">
            <rect id="Rectangle_5089" data-name="Rectangle 5089" width="2" height="2" transform="translate(-0.365 0.137)" fill="#8e9199"/>
          </g>
        </g>
        <g id="Group_32508" data-name="Group 32508" transform="translate(3.365 18.18)">
          <g id="Group_32507" data-name="Group 32507" transform="translate(-0.365 0.273)">
            <rect id="Rectangle_5093" data-name="Rectangle 5093" width="2" height="2" fill="#8e9199"/>
          </g>
        </g>
      </g>
      <g id="Group_32521" data-name="Group 32521" transform="translate(2 -1)">
        <g id="Group_32492" data-name="Group 32492" transform="translate(6.228 10.499)">
          <g id="Group_32491" data-name="Group 32491" transform="translate(0 0)">
            <rect id="Rectangle_5085" data-name="Rectangle 5085" width="2" height="2" transform="translate(-0.228 -0.046)" fill="#8e9199"/>
          </g>
        </g>
        <g id="Group_32502" data-name="Group 32502" transform="translate(6.228 14.316)">
          <g id="Group_32501" data-name="Group 32501" transform="translate(-0.228 0.137)">
            <rect id="Rectangle_5090" data-name="Rectangle 5090" width="2" height="2" fill="#8e9199"/>
          </g>
        </g>
        <g id="Group_32510" data-name="Group 32510" transform="translate(6.228 18.18)">
          <g id="Group_32509" data-name="Group 32509" transform="translate(0 0)">
            <rect id="Rectangle_5094" data-name="Rectangle 5094" width="2" height="2" transform="translate(-0.228 0.273)" fill="#8e9199"/>
          </g>
        </g>
      </g>
      <g id="Group_32520" data-name="Group 32520" transform="translate(2 -1)">
        <g id="Group_32494" data-name="Group 32494" transform="translate(10.046 10.499)">
          <g id="Group_32493" data-name="Group 32493" transform="translate(0 0)">
            <rect id="Rectangle_5086" data-name="Rectangle 5086" width="2" height="2" transform="translate(-0.046 -0.046)" fill="#8e9199"/>
          </g>
        </g>
        <g id="Group_32504" data-name="Group 32504" transform="translate(10.046 14.316)">
          <g id="Group_32503" data-name="Group 32503" transform="translate(-0.046 0.137)">
            <rect id="Rectangle_5091" data-name="Rectangle 5091" width="2" height="2" fill="#8e9199"/>
          </g>
        </g>
        <g id="Group_32512" data-name="Group 32512" transform="translate(10.046 18.18)">
          <g id="Group_32511" data-name="Group 32511" transform="translate(0 0)">
            <rect id="Rectangle_5095" data-name="Rectangle 5095" width="2" height="2" transform="translate(-0.046 0.273)" fill="#8e9199"/>
          </g>
        </g>
      </g>
      <g id="Group_32519" data-name="Group 32519" transform="translate(1.547 -1)">
        <g id="Group_32496" data-name="Group 32496" transform="translate(14.316 10.499)">
          <g id="Group_32495" data-name="Group 32495" transform="translate(0 0)">
            <rect id="Rectangle_5087" data-name="Rectangle 5087" width="2" height="2" transform="translate(0.137 -0.046)" fill="#8e9199"/>
          </g>
        </g>
        <g id="Group_32506" data-name="Group 32506" transform="translate(14.316 14.316)">
          <g id="Group_32505" data-name="Group 32505" transform="translate(0.137 0.137)">
            <rect id="Rectangle_5092" data-name="Rectangle 5092" width="2" height="2" fill="#8e9199"/>
          </g>
        </g>
        <g id="Group_32514" data-name="Group 32514" transform="translate(14.316 18.18)">
          <g id="Group_32513" data-name="Group 32513" transform="translate(0 0)">
            <rect id="Rectangle_5096" data-name="Rectangle 5096" width="2" height="2" transform="translate(0.137 0.273)" fill="#8e9199"/>
          </g>
        </g>
      </g>
    </g>
    <rect id="Rectangle_5098" data-name="Rectangle 5098" width="24" height="24" transform="translate(-13874 12272)" fill="none"/>
  </g>
</svg>
