<svg xmlns="http://www.w3.org/2000/svg" width="15.488" height="21.021" viewBox="0 0 15.488 21.021">
  <g id="Group_32888" data-name="Group 32888" transform="translate(-26 -368)">
    <path id="Path_32729" data-name="Path 32729" d="M64.951,5.464H53.07a2.086,2.086,0,0,1-2-2.156,2.086,2.086,0,0,1,2-2.156H64.955a.556.556,0,0,0,.534-.576A.556.556,0,0,0,64.955,0H53.07A3.2,3.2,0,0,0,50,3.308V17.713a3.2,3.2,0,0,0,3.07,3.308H64.955a.556.556,0,0,0,.534-.576V6.04A.562.562,0,0,0,64.951,5.464Zm-.534,14.405H53.07a2.086,2.086,0,0,1-2-2.156V5.819a2.939,2.939,0,0,0,2,.8H64.416V19.869Z" transform="translate(-23.999 368)" fill="#153759"/>
    <path id="Path_32731" data-name="Path 32731" d="M168.791,212.128a.532.532,0,0,0,.168.03.5.5,0,0,0,.468-.329l.606-1.695h2.334a.322.322,0,0,0,.06,0l.606,1.7a.5.5,0,0,0,.468.329.532.532,0,0,0,.168-.03.5.5,0,0,0,.3-.636l-2.267-6.356h0a.229.229,0,0,0-.019-.045l-.011-.022-.011-.022a.162.162,0,0,1-.015-.026s-.007-.011-.011-.015a.1.1,0,0,0-.019-.022s-.007-.011-.015-.015-.011-.011-.019-.019l-.019-.019s-.011-.007-.015-.015-.015-.011-.022-.019l-.015-.011c-.007,0-.015-.011-.022-.015l-.022-.011-.022-.011a.229.229,0,0,0-.045-.019h0l-.045-.011c-.008,0-.011,0-.019,0l-.03-.008a.048.048,0,0,1-.022,0c-.007,0-.019,0-.026,0H171.2a.064.064,0,0,0-.026,0,.048.048,0,0,0-.022,0,.088.088,0,0,0-.03.008c-.007,0-.011,0-.019,0l-.041.011h0a.229.229,0,0,0-.045.019l-.022.011-.022.011a.162.162,0,0,1-.026.015l-.015.011c-.007.007-.015.011-.022.019s-.011.007-.015.015l-.019.019-.019.019s-.008.011-.015.015-.011.015-.019.022-.007.011-.011.015-.011.015-.015.022l-.011.022-.011.022a.228.228,0,0,0-.019.045h0l-2.274,6.356A.515.515,0,0,0,168.791,212.128Zm2.443-5.346.842,2.357h-1.687Z" transform="translate(-137.491 172.056)" fill="#153759"/>
    <rect id="Rectangle_5157" data-name="Rectangle 5157" width="11" height="1" rx="0.5" transform="translate(30 371)" fill="#153759"/>
  </g>
</svg>
