<svg xmlns="http://www.w3.org/2000/svg" width="17.906" height="21.777" viewBox="0 0 17.906 21.777">
  <g id="keyhole" transform="translate(-45.51)">
    <g id="Group_32820" data-name="Group 32820" transform="translate(45.51 0)">
      <g id="Group_32819" data-name="Group 32819" transform="translate(0 0)">
        <path id="Path_32714" data-name="Path 32714" d="M62.962,2.663A19.352,19.352,0,0,1,54.7.062a.484.484,0,0,0-.475,0,19.351,19.351,0,0,1-8.262,2.6.484.484,0,0,0-.454.483v9.195a7.386,7.386,0,0,0,1.411,4.3,11.936,11.936,0,0,0,3.033,2.906,18.534,18.534,0,0,0,4.361,2.2.484.484,0,0,0,.3,0,18.537,18.537,0,0,0,4.361-2.2A11.933,11.933,0,0,0,62,16.644a7.386,7.386,0,0,0,1.411-4.3V3.146A.484.484,0,0,0,62.962,2.663Zm-.514,9.678c0,2.407-1.348,4.561-4.007,6.4a18.119,18.119,0,0,1-3.979,2.041,18.062,18.062,0,0,1-3.96-2.028c-2.671-1.842-4.025-4-4.025-6.413V3.594a20.4,20.4,0,0,0,7.985-2.557,20.4,20.4,0,0,0,7.985,2.557v8.746Z" transform="translate(-45.51 0)" fill="#153759"/>
        <path id="Path_32715" data-name="Path 32715" d="M192.444,150.337c-.069-.411-.139-.833-.2-1.252a2.9,2.9,0,1,0-3.214,0c-.062.418-.133.841-.2,1.252-.14.841-.285,1.711-.367,2.575a.484.484,0,0,0,.482.53h3.388a.484.484,0,0,0,.482-.53C192.729,152.048,192.584,151.178,192.444,150.337Zm-1.206-1.439c.074.535.164,1.076.251,1.6.108.65.22,1.318.3,1.978h-2.308c.081-.66.192-1.328.3-1.978.087-.523.177-1.063.252-1.6a.484.484,0,0,0-.263-.5,1.936,1.936,0,1,1,1.729,0A.484.484,0,0,0,191.238,148.9Z" transform="translate(-181.683 -137.648)" fill="#153759"/>
        <path id="Path_32716" data-name="Path 32716" d="M97.819,51.691a21.674,21.674,0,0,1-6.39,2.147.484.484,0,0,0-.407.478v7.466c0,2.054,1.189,3.927,3.535,5.566a17.22,17.22,0,0,0,3.3,1.77.484.484,0,0,0,.362,0c.356-.144.913-.384,1.545-.713a.484.484,0,1,0-.447-.859c-.5.26-.949.461-1.28.6a16.131,16.131,0,0,1-2.928-1.592C93.04,65.107,91.99,63.5,91.99,61.782V54.724a22.733,22.733,0,0,0,6.049-2.06,22.733,22.733,0,0,0,6.049,2.06v7.058a5.089,5.089,0,0,1-1.725,3.624.484.484,0,1,0,.68.688,6.015,6.015,0,0,0,2.013-4.313V54.316a.484.484,0,0,0-.407-.478,21.673,21.673,0,0,1-6.39-2.147A.484.484,0,0,0,97.819,51.691Z" transform="translate(-89.086 -49.442)" fill="#153759"/>
        <path id="Path_32717" data-name="Path 32717" d="M318.62,400.538l-.045.045a.484.484,0,1,0,.681.688l.052-.052a.484.484,0,0,0-.687-.681Z" transform="translate(-306.823 -383.364)" fill="#153759"/>
      </g>
    </g>
  </g>
</svg>
