<svg xmlns="http://www.w3.org/2000/svg" width="66.918" height="73.458" viewBox="0 0 66.918 73.458">
  <g id="loading_1_" data-name="loading (1)" transform="translate(-22.605 0.5)">
    <g id="Group_32348" data-name="Group 32348" transform="translate(23.105)">
      <path id="Path_32564" data-name="Path 32564" d="M86.608,67.627H82.365V4.831h4.242a2.415,2.415,0,0,0,0-4.831H25.52a2.415,2.415,0,1,0,0,4.831h4.242v62.8H25.52a2.415,2.415,0,1,0,0,4.83H86.608a2.415,2.415,0,1,0,0-4.83ZM34.593,23.348A35.994,35.994,0,0,0,46.075,35.46V37A36.036,36.036,0,0,0,34.593,49.11Zm0,44.279A31.123,31.123,0,0,1,49.73,40.409a2.415,2.415,0,0,0,1.176-2.073V34.121a2.415,2.415,0,0,0-1.176-2.073A31.021,31.021,0,0,1,44.9,28.482H67.226A31.016,31.016,0,0,1,62.4,32.048a2.415,2.415,0,0,0-1.176,2.073v4.215A2.415,2.415,0,0,0,62.4,40.409,31.118,31.118,0,0,1,77.535,67.627ZM77.535,49.11A36.034,36.034,0,0,0,66.053,37V35.46A36,36,0,0,0,77.535,23.348ZM71.578,23.652H40.55A31.014,31.014,0,0,1,34.593,4.831H77.535A31,31,0,0,1,71.578,23.652Z" transform="translate(-23.105)" fill="#21da8f" stroke="#fff" stroke-width="1"/>
    </g>
  </g>
</svg>
