<svg xmlns="http://www.w3.org/2000/svg" width="81.818" height="81.817" viewBox="0 0 81.818 81.817">
  <g id="money" transform="translate(0.001)">
    <g id="Group_32265" data-name="Group 32265" transform="translate(29.723 9.588)">
      <g id="Group_32264" data-name="Group 32264">
        <path id="Path_32536" data-name="Path 32536" d="M187.6,60a1.6,1.6,0,1,0,1.6,1.6A1.6,1.6,0,0,0,187.6,60Z" transform="translate(-186 -60)" fill="#21da8f"/>
      </g>
    </g>
    <g id="Group_32267" data-name="Group 32267" transform="translate(36.012 12.784)">
      <g id="Group_32266" data-name="Group 32266">
        <path id="Path_32537" data-name="Path 32537" d="M230.257,89.588a1.6,1.6,0,0,1,0-3.2,2.566,2.566,0,0,1,1.728.835,1.6,1.6,0,1,0,2.223-2.3,6.173,6.173,0,0,0-2.353-1.471V81.6a1.6,1.6,0,0,0-3.2,0v1.873a4.794,4.794,0,0,0,1.6,9.313,1.6,1.6,0,0,1,0,3.2,2.892,2.892,0,0,1-2.075-1.209,1.6,1.6,0,0,0-2.446,2.057,6.626,6.626,0,0,0,2.923,2.081v1.865a1.6,1.6,0,0,0,3.2,0V98.9a4.794,4.794,0,0,0-1.6-9.313Z" transform="translate(-225.361 -80)" fill="#21da8f"/>
      </g>
    </g>
    <g id="Group_32269" data-name="Group 32269" transform="translate(46.661 23.331)">
      <g id="Group_32268" data-name="Group 32268">
        <path id="Path_32538" data-name="Path 32538" d="M320.764,146a6.4,6.4,0,0,0-6.392,6.392v11.389a6.39,6.39,0,0,0-6.117,1.67l-10.717,10.717a7.933,7.933,0,0,0-2.342,5.651v9.4h-1.6a1.6,1.6,0,0,0-1.6,1.6v10.067a1.6,1.6,0,0,0,1.6,1.6H315.97a1.6,1.6,0,0,0,1.6-1.6V192.821a1.6,1.6,0,0,0-1.6-1.6h-1.6v-.754a1.609,1.609,0,0,1,.469-1.13l9.975-9.975a7.939,7.939,0,0,0,2.341-5.651V152.392A6.4,6.4,0,0,0,320.764,146Zm-6.392,55.29H295.2v-6.871h19.176Zm9.588-27.577a4.764,4.764,0,0,1-1.4,3.391l-9.975,9.975a4.826,4.826,0,0,0-1.4,3.389v.754H298.392v-9.4a4.759,4.759,0,0,1,1.4-3.391l10.718-10.718a3.191,3.191,0,0,1,4.386-.123l.027.024c.036.031.071.065.105.1a3.193,3.193,0,0,1,0,4.518l-7.94,7.94a1.6,1.6,0,1,0,2.26,2.26l7.94-7.94a6.388,6.388,0,0,0,.275-8.745V152.392a3.2,3.2,0,0,1,6.392,0Z" transform="translate(-292 -146)" fill="#21da8f"/>
      </g>
    </g>
    <g id="Group_32271" data-name="Group 32271" transform="translate(0 23.331)">
      <g id="Group_32270" data-name="Group 32270">
        <path id="Path_32539" data-name="Path 32539" d="M33.558,191.223h-1.6v-9.4a7.933,7.933,0,0,0-2.341-5.651L18.9,165.451a6.389,6.389,0,0,0-6.117-1.67V152.392a6.392,6.392,0,0,0-12.784,0v21.322a7.94,7.94,0,0,0,2.341,5.651l9.975,9.974a1.609,1.609,0,0,1,.469,1.13v.754h-1.6a1.6,1.6,0,0,0-1.6,1.6v10.067a1.6,1.6,0,0,0,1.6,1.6H33.558a1.6,1.6,0,0,0,1.6-1.6V192.821A1.6,1.6,0,0,0,33.558,191.223ZM4.6,177.1a4.765,4.765,0,0,1-1.4-3.391V152.392a3.2,3.2,0,0,1,6.392,0v13.353a6.387,6.387,0,0,0,.275,8.745l7.99,7.99a1.6,1.6,0,0,0,2.26-2.26l-7.99-7.99a3.193,3.193,0,0,1,0-4.518c.035-.035.069-.068.105-.1l.027-.024a3.191,3.191,0,0,1,4.386.123L27.36,178.429a4.759,4.759,0,0,1,1.4,3.39v9.4H15.98v-.754a4.826,4.826,0,0,0-1.4-3.389ZM31.96,201.29H12.784v-6.871H31.96Z" transform="translate(0 -146)" fill="#21da8f"/>
      </g>
    </g>
    <g id="Group_32273" data-name="Group 32273" transform="translate(16.939)">
      <g id="Group_32272" data-name="Group 32272">
        <path id="Path_32540" data-name="Path 32540" d="M129.97,0a23.97,23.97,0,1,0,23.97,23.97A24,24,0,0,0,129.97,0Zm0,44.744A20.774,20.774,0,1,1,150.744,23.97,20.8,20.8,0,0,1,129.97,44.744Z" transform="translate(-106)" fill="#21da8f"/>
      </g>
    </g>
    <g id="Group_32275" data-name="Group 32275" transform="translate(23.331 6.397)">
      <g id="Group_32274" data-name="Group 32274">
        <path id="Path_32541" data-name="Path 32541" d="M174.613,43.92a17.7,17.7,0,0,0-14.929-3.475,1.6,1.6,0,1,0,.674,3.124,14.517,14.517,0,0,1,12.248,2.837A14.379,14.379,0,1,1,150.9,50.814,1.6,1.6,0,1,0,148.08,49.3a17.579,17.579,0,1,0,26.532-5.382Z" transform="translate(-146 -40.031)" fill="#21da8f"/>
      </g>
    </g>
  </g>
</svg>
