<svg id="more" xmlns="http://www.w3.org/2000/svg" width="30" height="7.286" viewBox="0 0 30 7.286">
  <path id="Path_32571" data-name="Path 32571" d="M192.786,189.143a3.643,3.643,0,1,0-3.643,3.643A3.648,3.648,0,0,0,192.786,189.143Zm-3.643,2.143a2.143,2.143,0,1,1,2.143-2.143A2.145,2.145,0,0,1,189.143,191.286Z" transform="translate(-174.143 -185.5)" fill="#4e4e4e"/>
  <path id="Path_32572" data-name="Path 32572" d="M3.643,185.5a3.643,3.643,0,1,0,3.643,3.643A3.648,3.648,0,0,0,3.643,185.5Zm0,5.786a2.143,2.143,0,1,1,2.143-2.143A2.145,2.145,0,0,1,3.643,191.286Z" transform="translate(0 -185.5)" fill="#4e4e4e"/>
  <path id="Path_32573" data-name="Path 32573" d="M374.643,185.5a3.643,3.643,0,1,0,3.643,3.643A3.648,3.648,0,0,0,374.643,185.5Zm0,5.786a2.143,2.143,0,1,1,2.143-2.143A2.145,2.145,0,0,1,374.643,191.286Z" transform="translate(-348.286 -185.5)" fill="#4e4e4e"/>
</svg>
