<svg xmlns="http://www.w3.org/2000/svg" width="75.189" height="75.189" viewBox="0 0 75.189 75.189">
  <g id="presentation" transform="translate(-0.006)">
    <g id="Group_32882" data-name="Group 32882" transform="translate(3.766)">
      <g id="Group_32881" data-name="Group 32881">
        <path id="Path_32719" data-name="Path 32719" d="M36.887,0A11.278,11.278,0,1,0,48.165,11.278,11.292,11.292,0,0,0,36.887,0Zm0,18.8a7.519,7.519,0,1,1,7.519-7.519A7.518,7.518,0,0,1,36.887,18.8Z" transform="translate(-25.609)" fill="#21da8f"/>
      </g>
    </g>
    <g id="Group_32884" data-name="Group 32884" transform="translate(30.081 18.797)">
      <g id="Group_32883" data-name="Group 32883">
        <path id="Path_32720" data-name="Path 32720" d="M246.162,128H208.568a3.759,3.759,0,0,0-3.759,3.759v2.871l3.759,1.88v-4.751h37.594v30.074H208.568v-4.469l-3.759-.938v5.407a3.759,3.759,0,0,0,3.759,3.759h15.479l-9.571,15.951a1.879,1.879,0,1,0,3.224,1.931l7.786-12.977v12.011a1.88,1.88,0,1,0,3.759,0V170.5l7.787,12.976a1.879,1.879,0,0,0,1.612.914,1.844,1.844,0,0,0,.966-.268,1.876,1.876,0,0,0,.647-2.578l-9.571-15.951h15.477a3.759,3.759,0,0,0,3.759-3.759V131.759A3.759,3.759,0,0,0,246.162,128Z" transform="translate(-204.809 -128)" fill="#21da8f"/>
      </g>
    </g>
    <g id="Group_32886" data-name="Group 32886" transform="translate(0.006 26.316)">
      <g id="Group_32885" data-name="Group 32885" transform="translate(0)">
        <path id="Path_32721" data-name="Path 32721" d="M65.721,182.443a1.865,1.865,0,0,0-2.323-1.288l-23.2,6.628a3.753,3.753,0,0,0-.92-.665L24.244,179.6a3.767,3.767,0,0,0-1.682-.4H7.525a3.76,3.76,0,0,0-3.7,3.087L.067,202.963a3.759,3.759,0,0,0,3.7,4.432h2.4l1.37,17.214a3.758,3.758,0,0,0,3.747,3.461H18.8a3.759,3.759,0,0,0,3.737-3.343l3.284-29.557,10.865,2.716a3.76,3.76,0,0,0,4.67-3.648v-2.878l23.074-6.593A1.875,1.875,0,0,0,65.721,182.443ZM37.6,194.238l-15.037-3.759L18.8,224.312H11.284L9.64,203.636H3.766L7.525,182.96h5.639V194.4a1.88,1.88,0,1,0,3.759,0V182.96h5.639L37.6,190.479Z" transform="translate(-0.006 -179.201)" fill="#21da8f"/>
      </g>
    </g>
  </g>
</svg>
