<svg xmlns="http://www.w3.org/2000/svg" width="17.893" height="21.62" viewBox="0 0 17.893 21.62">
  <g id="shutdown" transform="translate(0 0)">
    <path id="Path_32423" data-name="Path 32423" d="M8.946,112.792A8.948,8.948,0,0,1,6.573,95.218a.746.746,0,0,1,.395,1.438,7.455,7.455,0,1,0,4.119.047.745.745,0,1,1,.427-1.428,8.947,8.947,0,0,1-2.568,17.518Zm0,0" transform="translate(0 -91.172)" fill="#fff"/>
    <path id="Path_32424" data-name="Path 32424" d="M194.953,9.692a.745.745,0,0,1-.746-.745V.746a.745.745,0,1,1,1.491,0v8.2A.745.745,0,0,1,194.953,9.692Zm0,0" transform="translate(-186.006 0)" fill="#fff"/>
  </g>
</svg>
