<svg xmlns="http://www.w3.org/2000/svg" width="83.686" height="83.735" viewBox="0 0 83.686 83.735">
  <g id="study_2_" data-name="study (2)" transform="translate(0.5 0.5)">
    <g id="Group_31674" data-name="Group 31674" transform="translate(0 0)">
      <path id="Path_32531" data-name="Path 32531" d="M77.84,44.188V36.5a2.422,2.422,0,0,0-2.422-2.422A73.077,73.077,0,0,0,61.34,35.366,21.872,21.872,0,0,0,52.246,30.1a16.957,16.957,0,1,0-21.806,0,21.875,21.875,0,0,0-9.094,5.266A73.089,73.089,0,0,0,7.267,34.081,2.422,2.422,0,0,0,4.845,36.5v7.684A7.279,7.279,0,0,0,0,51.038v4.845a7.279,7.279,0,0,0,4.845,6.851v7.684A2.422,2.422,0,0,0,7.267,72.84c12.666,0,23.067,3,32.732,9.444a2.43,2.43,0,0,0,2.687,0c9.665-6.443,20.066-9.444,32.732-9.444a2.422,2.422,0,0,0,2.422-2.422V62.734a7.279,7.279,0,0,0,4.845-6.851V51.038A7.279,7.279,0,0,0,77.84,44.188ZM29.23,17.124A12.112,12.112,0,1,1,41.343,29.237,12.207,12.207,0,0,1,29.23,17.124ZM7.267,58.306a2.425,2.425,0,0,1-2.422-2.422V51.038a2.422,2.422,0,1,1,4.845,0v4.845A2.425,2.425,0,0,1,7.267,58.306ZM38.92,75.922A60.611,60.611,0,0,0,9.69,68.03v-5.3a7.279,7.279,0,0,0,4.845-6.851V51.038A7.279,7.279,0,0,0,9.69,44.188V38.961c11.382.327,20.532,3.007,29.231,8.546Zm2.422-32.613A57.571,57.571,0,0,0,27.249,36.83,16.992,16.992,0,0,1,36.5,34.081h9.69a16.992,16.992,0,0,1,9.249,2.749A57.568,57.568,0,0,0,41.343,43.309ZM73,68.03a60.615,60.615,0,0,0-29.231,7.892V47.508c8.7-5.539,17.848-8.221,29.231-8.548v5.227a7.279,7.279,0,0,0-4.845,6.851v4.845A7.279,7.279,0,0,0,73,62.734ZM77.84,55.883a2.422,2.422,0,1,1-4.845,0V51.038a2.422,2.422,0,1,1,4.845,0Z" transform="translate(0 -0.006)" fill="#21da8f" stroke="#fff" stroke-width="1"/>
    </g>
  </g>
</svg>
