<svg xmlns="http://www.w3.org/2000/svg" width="22.307" height="20.344" viewBox="0 0 22.307 20.344">
  <path id="university-lecture" d="M.5,35.975a.5.5,0,0,1-.465-.691l1.385-3.413c.6-1.469,1.653-3.409,3.975-3.5a.494.494,0,0,1,.06,0H7.527a.494.494,0,0,1,.06,0c2.322.094,3.379,2.035,3.975,3.5l.179.44,3.722-3.44a.5.5,0,1,1,.682.737l-4.255,3.932a.5.5,0,0,1-.806-.18l-.451-1.113c-.717-1.767-1.545-2.647-2.7-2.84l-.3,1.409.395,3.553a.5.5,0,0,1-.185.447l-.88.707a.5.5,0,0,1-.314.111H6.336a.5.5,0,0,1-.314-.111l-.88-.707a.5.5,0,0,1-.185-.447l.4-3.553-.3-1.409c-1.16.192-1.987,1.072-2.7,2.84L.967,35.661A.5.5,0,0,1,.5,35.975Zm5.484-1.767.506.407L7,34.208,6.674,31.3H6.309Zm.282-3.917h.448l.193-.924H6.074ZM21.8,34.373H14.172a.5.5,0,1,1,0-1H21.3V18.914H1.4V29.478a.5.5,0,1,1-1,0V18.412a.5.5,0,0,1,.5-.5H21.8a.5.5,0,0,1,.5.5V33.871A.5.5,0,0,1,21.8,34.373ZM8.977,32a.5.5,0,0,1-.5-.5v-.068a.5.5,0,0,1,1,0v.068A.5.5,0,0,1,8.977,32ZM6.492,27.444a2.762,2.762,0,1,1,.535-5.473l.03.006a2.763,2.763,0,0,1-.565,5.467ZM5.6,23.17a1.758,1.758,0,1,0,1.563-.115,2.766,2.766,0,0,1-.853.743.5.5,0,0,1-.71-.628Zm8.333-6.534H8.775a.5.5,0,0,1,0-1h5.154a.5.5,0,0,1,0,1Z" transform="translate(0 -15.631)" fill="#153759"/>
</svg>
