<?xml version="1.0" encoding="utf-8"?>
<!-- Generator: Adobe Illustrator 16.0.3, SVG Export Plug-In . SVG Version: 6.00 Build 0)  -->
<!DOCTYPE svg PUBLIC "-//W3C//DTD SVG 1.1//EN" "http://www.w3.org/Graphics/SVG/1.1/DTD/svg11.dtd">
<svg version="1.1" id="Layer_1" xmlns="http://www.w3.org/2000/svg" xmlns:xlink="http://www.w3.org/1999/xlink" x="0px" y="0px"
	 width="30px" height="31px" viewBox="0 0 30 31" enable-background="new 0 0 30 31" xml:space="preserve">
<g>
	<g>
		<defs>
			<rect id="SVGID_1_" width="30" height="31"/>
		</defs>
		<clipPath id="SVGID_2_">
			<use xlink:href="#SVGID_1_"  overflow="visible"/>
		</clipPath>
		<g id="Mask_Group_16" transform="translate(-10 -103)" clip-path="url(#SVGID_2_)">
			<g enable-background="new    ">
				<path fill="#02F0A1" d="M10.645,116.877v-3.781h2.986v-9.904h6.854l4.77,9.904h5.607v-9.904h5.822v9.904h3.244v3.781h-3.244
					v2.256h3.244v3.781h-3.244V134h-6.402l-5.479-11.086h-5.35V134h-5.822v-11.086h-2.986v-3.781h2.986v-2.256H10.645z
					 M19.389,111.527h-0.086c0.028,0.459,0.057,0.981,0.086,1.568h0.623C19.84,112.666,19.632,112.144,19.389,111.527z
					 M19.453,119.133h3.502l-1.117-2.256h-2.385V119.133z M28.176,119.133h2.686v-2.256H27.08L28.176,119.133z M30.947,124.998
					h0.064c-0.058-0.486-0.101-1.182-0.129-2.084h-0.859C30.338,123.588,30.646,124.282,30.947,124.998z"/>
			</g>
		</g>
	</g>
</g>
</svg>
