<?xml version="1.0" standalone="no"?>
<!DOCTYPE svg PUBLIC "-//W3C//DTD SVG 20010904//EN"
 "http://www.w3.org/TR/2001/REC-SVG-20010904/DTD/svg10.dtd">
<svg version="1.0" xmlns="http://www.w3.org/2000/svg"
 width="88.000000pt" height="88.000000pt" viewBox="0 0 88.000000 88.000000"
 preserveAspectRatio="xMidYMid meet">
<metadata>
Created by potrace 1.11, written by Peter Selinger 2001-2013
</metadata>
<g transform="translate(0.000000,88.000000) scale(0.100000,-0.100000)"
fill="#000000" stroke="none">
<path d="M37 773 c4 -9 0 -11 -11 -7 -18 7 -18 5 -20 -83 -1 -34 2 -59 6 -56
5 2 6 8 4 12 -3 4 3 12 13 18 16 10 19 8 19 -12 0 -13 -3 -24 -7 -23 -3 1 -14
-2 -23 -6 -18 -8 -15 -26 3 -26 6 0 8 4 5 9 -6 9 51 7 61 -3 12 -12 -6 -17
-25 -7 -16 8 -23 6 -38 -11 -11 -12 -14 -18 -8 -15 6 4 28 -9 48 -27 20 -19
36 -32 36 -29 0 4 18 -13 40 -36 22 -23 40 -39 40 -36 0 4 6 0 14 -7 7 -7 37
-33 67 -58 29 -25 61 -53 71 -63 10 -9 20 -17 23 -17 3 0 19 -14 37 -30 17
-17 37 -30 45 -30 8 0 11 -4 8 -10 -3 -5 -2 -10 2 -10 5 0 24 -14 43 -31 42
-38 94 -69 118 -69 10 0 24 -6 31 -12 11 -11 12 -10 6 2 -6 12 -5 13 5 3 9 -8
19 -9 32 -2 13 7 18 6 18 -2 0 -9 3 -9 14 0 10 8 16 9 21 1 4 -7 12 -7 26 0
13 7 19 7 19 0 0 -12 22 -9 32 5 5 6 8 5 8 -3 0 -10 5 -9 17 4 15 14 17 44 18
233 1 222 -1 245 -16 235 -5 -3 -9 -2 -9 3 0 4 -53 8 -117 7 -71 0 -124 4
-132 10 -8 6 -12 7 -9 1 4 -6 -6 -10 -22 -10 -20 -1 -27 3 -23 15 4 13 3 13
-9 0 -18 -20 -57 -18 -70 3 -5 10 -7 21 -4 24 3 4 6 1 6 -6 0 -7 4 -10 9 -6 5
3 12 1 16 -5 4 -7 12 -7 26 0 13 8 25 7 40 -1 15 -7 19 -8 15 0 -5 7 -1 9 8 5
9 -3 16 -1 16 5 0 6 -3 10 -7 10 -21 -3 -34 2 -28 11 4 6 11 8 16 5 5 -4 9 -1
9 5 0 7 -7 9 -16 6 -8 -3 -12 -2 -9 4 3 6 1 10 -5 10 -6 0 -2 14 10 31 27 36
17 54 -11 20 -11 -13 -22 -22 -24 -19 -8 8 26 48 41 48 16 0 19 16 5 25 -6 3
-15 -3 -21 -12 -10 -16 -11 -15 -6 5 4 23 4 23 -21 6 -22 -14 -25 -14 -20 -1
6 16 -8 17 -30 4 -8 -5 -13 -3 -13 5 0 8 -5 6 -11 -5 -6 -9 -15 -15 -21 -11
-6 4 -5 10 3 15 10 7 9 8 -6 6 -11 -1 -26 -6 -32 -10 -8 -5 -13 -3 -13 5 0 8
-5 6 -11 -5 -6 -9 -15 -15 -21 -11 -6 4 -5 9 3 15 10 6 7 8 -8 6 -16 -1 -19
-4 -12 -14 8 -9 5 -11 -10 -10 -14 1 -20 6 -16 15 4 11 -1 10 -21 -3 -23 -14
-26 -15 -21 -2 7 17 -17 17 -35 -1 -8 -8 -8 -15 2 -27 8 -9 8 -15 2 -15 -6 0
-13 4 -17 10 -3 5 -12 7 -20 3 -11 -4 -13 -1 -9 11 3 9 11 13 17 9 5 -3 7 -1
3 5 -3 5 0 12 6 15 7 2 1 4 -13 3 -20 -1 -25 -5 -22 -21 4 -15 2 -17 -5 -6 -8
11 -10 11 -15 0 -4 -11 -6 -11 -6 -1 -1 7 -5 11 -10 7 -5 -3 -13 0 -17 6 -4 7
-3 9 2 6 6 -3 16 -1 24 4 11 7 9 8 -9 6 -13 -2 -29 -10 -35 -18 -14 -18 -38
-18 -44 0 -3 8 0 11 5 8 5 -3 15 -2 22 3 9 5 3 7 -17 7 -19 -1 -28 -6 -25 -14z
m197 -7 c-6 -15 11 -16 33 -3 13 8 29 -10 19 -21 -11 -10 -36 -11 -36 -1 0 6
-4 8 -9 4 -12 -7 -24 12 -16 25 9 15 15 12 9 -4z m204 -19 c-2 6 0 10 3 10 3
-1 14 5 24 13 11 8 16 10 12 4 -10 -16 18 -25 33 -11 10 9 11 9 6 0 -4 -7 -2
-13 4 -13 6 0 4 -10 -5 -24 -17 -26 -6 -44 18 -30 9 6 9 5 0 -8 -7 -8 -10 -17
-7 -20 2 -3 -3 -8 -12 -12 -11 -4 -15 -2 -11 8 3 7 1 18 -5 24 -7 7 -6 17 2
32 8 15 8 20 1 16 -6 -4 -11 -2 -11 5 0 7 -3 9 -6 6 -4 -3 -14 -2 -23 3 -13 6
-17 4 -17 -10 0 -10 4 -16 8 -14 4 3 8 0 8 -5 0 -21 -26 -11 -42 17 -10 15
-18 21 -18 14 0 -9 -5 -10 -19 -3 -16 9 -18 7 -15 -14 1 -17 -3 -25 -12 -25
-9 0 -13 4 -9 9 3 5 1 12 -5 16 -5 3 -10 11 -10 17 0 6 6 5 16 -2 12 -11 15
-11 12 0 -2 8 2 14 9 15 6 0 15 3 19 8 4 4 18 -3 32 -15 13 -13 22 -18 20 -11z
m-303 0 c11 -1 26 -6 33 -10 6 -5 17 -5 22 -2 6 3 13 -1 16 -10 5 -12 9 -13
20 -4 8 7 17 9 21 5 4 -3 -2 -13 -13 -21 -23 -17 -38 -19 -28 -3 4 7 3 8 -4 4
-8 -5 -10 -1 -5 11 7 17 6 17 -11 1 -21 -22 -44 -25 -27 -4 8 10 9 16 1 21 -6
4 -9 1 -8 -6 2 -6 -3 -14 -10 -16 -7 -3 -11 1 -10 9 2 7 -3 12 -9 11 -7 -2
-13 2 -13 8 0 5 -5 7 -11 4 -6 -5 -3 -13 10 -22 12 -8 18 -19 15 -25 -4 -7
-10 -4 -16 6 -7 13 -13 14 -23 6 -10 -8 -12 -5 -12 15 0 13 3 22 8 19 5 -3 12
2 15 11 4 10 9 13 13 6 4 -6 16 -12 26 -14z m-74 -10 c6 -10 5 -18 -1 -22 -5
-3 -10 -10 -10 -15 0 -10 19 -8 37 3 9 6 11 3 7 -7 -6 -14 11 -17 31 -4 14 8
65 2 77 -10 7 -7 20 0 39 19 16 16 29 27 29 23 0 -3 6 -1 13 5 8 6 18 7 22 3
5 -4 5 2 1 12 -7 19 -6 19 13 2 11 -10 18 -26 16 -37 -2 -10 -1 -19 3 -19 15
0 37 20 37 32 0 20 28 15 53 -9 12 -13 20 -24 17 -24 -19 -5 -31 -3 -37 6 -6
7 -10 6 -15 -1 -5 -6 -16 -10 -25 -8 -10 1 -20 -2 -23 -6 -3 -5 -12 -7 -20 -4
-8 4 -12 11 -8 18 4 6 8 17 9 24 2 10 -1 10 -11 2 -8 -7 -20 -8 -26 -4 -8 4
-9 3 -5 -5 4 -6 4 -11 -1 -10 -4 1 -15 1 -23 0 -13 -1 -13 -2 0 -11 8 -5 11
-10 6 -10 -5 0 -3 -7 4 -15 7 -8 8 -15 2 -15 -14 0 -33 25 -25 33 3 4 1 7 -5
7 -15 0 -15 -13 -1 -27 9 -9 7 -12 -10 -10 -11 1 -21 5 -21 10 0 4 -5 5 -12 1
-7 -5 -8 -3 -3 6 5 9 4 11 -4 6 -6 -4 -9 -12 -6 -17 7 -11 3 -11 -19 -3 -15 6
-15 8 -1 18 13 9 11 11 -11 13 -15 0 -23 -2 -18 -5 14 -11 16 -34 2 -29 -7 2
-12 9 -11 14 1 5 -5 10 -12 10 -11 0 -12 -4 -4 -14 18 -21 -5 -15 -31 9 -22
20 -23 21 -16 3 4 -11 9 -26 10 -33 4 -21 23 -35 38 -26 23 14 40 13 34 -2 -4
-11 -2 -12 14 -4 25 13 25 13 27 -11 2 -17 -1 -19 -10 -10 -14 14 -31 15 -22
1 3 -6 -1 -7 -9 -4 -9 3 -16 10 -16 15 0 5 -5 9 -11 9 -5 0 -8 -4 -4 -9 3 -5
0 -13 -6 -17 -8 -4 -9 -3 -5 4 4 7 3 12 -3 12 -15 0 -51 42 -45 52 10 16 -7
30 -22 17 -16 -13 -15 -14 -19 23 -3 21 0 26 14 23 11 -2 17 4 18 17 2 19 1
19 -11 3 -9 -13 -15 -15 -20 -7 -4 7 -5 16 -2 21 9 14 37 7 47 -12z m429 -18
c0 -5 -5 -9 -12 -9 -6 0 -4 -7 5 -18 10 -10 14 -21 11 -25 -3 -3 -1 -14 5 -24
6 -10 11 -12 11 -5 0 16 27 16 27 -1 0 -9 -10 -13 -29 -11 -19 3 -27 0 -22 -7
3 -6 -5 -4 -19 6 -26 16 -45 7 -31 -16 9 -16 -17 -29 -36 -19 -9 5 -21 5 -28
1 -11 -6 -49 -7 -77 -1 -5 1 -12 1 -15 0 -16 -8 -57 -4 -57 6 0 6 7 11 16 10
11 -1 15 7 14 24 -1 14 1 19 4 12 4 -10 8 -10 19 -1 8 6 11 16 7 23 -11 17
-12 37 -2 30 6 -3 18 0 27 8 15 12 16 11 3 -4 -11 -15 -11 -19 3 -24 16 -6 23
-25 9 -23 -21 3 -33 -2 -31 -13 2 -7 -3 -12 -9 -10 -7 1 -13 -2 -13 -8 0 -15
8 -12 40 10 18 13 31 16 35 10 3 -5 2 -10 -2 -10 -5 0 -17 -6 -28 -13 -14 -11
-15 -16 -5 -22 9 -6 11 -4 6 4 -10 15 25 11 36 -4 5 -6 8 -6 8 1 0 6 15 10 36
9 33 -3 35 -1 21 13 -13 13 -19 13 -31 2 -9 -7 -16 -8 -16 -2 0 5 7 15 15 22
12 10 18 10 32 -1 9 -8 14 -9 10 -3 -5 8 5 11 31 8 26 -2 33 -1 22 6 -13 9
-13 11 0 20 12 7 10 9 -7 8 -14 -2 -19 -7 -16 -18 4 -13 4 -13 -6 0 -7 10 -11
11 -11 3 0 -15 -21 -13 -32 2 -5 7 -10 7 -15 0 -12 -15 -33 -17 -33 -2 0 8 -4
7 -11 -3 -9 -13 -10 -13 -6 0 2 10 18 15 48 16 60 1 78 11 75 39 -2 16 1 22
10 18 8 -3 14 -9 14 -14z m-373 -78 c8 8 13 7 18 -3 5 -7 5 -10 0 -6 -4 4 -14
3 -22 -4 -15 -12 -26 -5 -29 20 -3 16 -2 16 10 0 9 -12 16 -14 23 -7z m96 -5
c2 -6 0 -22 -4 -36 -6 -23 -9 -20 -13 13 0 6 -10 12 -20 12 -11 0 -21 5 -23
11 -2 6 9 11 26 11 17 0 32 -5 34 -11z m33 -23 c-4 -4 -11 -1 -16 7 -16 25
-11 35 7 17 9 -9 13 -20 9 -24z m122 18 c-7 -9 -13 -18 -15 -20 -1 -2 -1 5 0
16 0 11 7 20 14 20 10 0 10 -4 1 -16z"/>
<path d="M383 715 c0 -6 8 -11 18 -11 9 0 15 5 12 11 -2 7 -10 12 -17 12 -7 0
-13 -5 -13 -12z"/>
<path d="M25 689 c-4 -6 -5 -12 -2 -15 2 -3 7 2 10 11 7 17 1 20 -8 4z"/>
<path d="M255 600 c-3 -5 -1 -10 4 -10 6 0 11 5 11 10 0 6 -2 10 -4 10 -3 0
-8 -4 -11 -10z"/>
<path d="M555 680 c-3 -5 -1 -10 4 -10 6 0 11 5 11 10 0 6 -2 10 -4 10 -3 0
-8 -4 -11 -10z"/>
</g>
</svg>
